<?xml version="1.0" encoding="utf-8"?>
<!-- Generator: Adobe Illustrator 16.0.3, SVG Export Plug-In . SVG Version: 6.00 Build 0)  -->
<!DOCTYPE svg PUBLIC "-//W3C//DTD SVG 1.1//EN" "http://www.w3.org/Graphics/SVG/1.1/DTD/svg11.dtd">
<svg version="1.1" id="Layer_1" xmlns="http://www.w3.org/2000/svg" xmlns:xlink="http://www.w3.org/1999/xlink" x="0px" y="0px"
	 width="512px" height="512px" viewBox="0 0 512 512" enable-background="new 0 0 512 512" xml:space="preserve">
<g>
	<path fill="#231F20" d="M456.7,378.7c-52.5-8-56.5-15.7-56.5-15.7c10.8-64.9-22.7-147.1-77.4-191.6
		C250,112.2,139.3,155.2,53.1,65.2c-20.1-21-8.4,235.5,99.5,332.7c78.9,71,171.8,49.198,197.3,37.6c23.1-10.6,39.3-29.9,39.3-29.9
		c42.1,13,62.898,12.2,62.898,12.2C466.9,419.6,474.4,381.4,456.7,378.7z M360.6,383.1C222.4,342.2,118.5,198.6,118.5,198.6
		s91.2,107.7,252,160.2C370.7,366.9,365.9,378.5,360.6,383.1z"/>
</g>
</svg>
