<?xml version="1.0" encoding="utf-8"?>
<!-- Generator: Adobe Illustrator 16.0.3, SVG Export Plug-In . SVG Version: 6.00 Build 0)  -->
<!DOCTYPE svg PUBLIC "-//W3C//DTD SVG 1.1//EN" "http://www.w3.org/Graphics/SVG/1.1/DTD/svg11.dtd">
<svg version="1.1" id="Layer_1" xmlns="http://www.w3.org/2000/svg" xmlns:xlink="http://www.w3.org/1999/xlink" x="0px" y="0px"
	 width="560px" height="512px" viewBox="0 0 560 512" enable-background="new 0 0 560 512" xml:space="preserve">
<g>
	<path fill="#231F20" d="M67.82,146.709h42.492l10.96-52.219h25.769l-10.885,52.219h48.166l10.856-52.219h25.762l-10.81,52.219
		h22.805v25.901h-28.17l-8.53,41.177h36.7v25.765h-42.036l-10.724,51.812H154.27l10.769-51.812h-48.248l-10.802,51.812H79.958
		l10.867-51.812H67.82v-25.765h28.414l8.645-41.177H67.82V146.709z M130.755,172.61l-8.59,41.177h48.211l8.559-41.177H130.755z"/>
	<path fill="#231F20" d="M433.876,72.233v378.615h-94.481V247.86c0-29.31-0.701-46.925-2.105-52.857
		c-1.405-5.92-5.262-10.4-11.569-13.447c-6.321-3.036-20.386-4.555-42.22-4.555h-9.347v-44.145
		c45.682-9.827,80.369-30.045,104.064-60.631h55.66L433.876,72.233L433.876,72.233z"/>
</g>
</svg>
