<?xml version="1.0" encoding="utf-8"?>
<!-- Generator: Adobe Illustrator 16.0.3, SVG Export Plug-In . SVG Version: 6.00 Build 0)  -->
<!DOCTYPE svg PUBLIC "-//W3C//DTD SVG 1.1//EN" "http://www.w3.org/Graphics/SVG/1.1/DTD/svg11.dtd">
<svg version="1.1" id="Layer_1" xmlns="http://www.w3.org/2000/svg" xmlns:xlink="http://www.w3.org/1999/xlink" x="0px" y="0px"
	 width="512px" height="512px" viewBox="0 0 512 512" enable-background="new 0 0 512 512" xml:space="preserve">
<g>
	<path fill="#231F20" d="M471,261.4L471,261.4L471,261.4L260.9,49.8l0,0l-1.5-1.5H259c-8.3-7.9-17.9-12-29.9-12.3l0,0l-99.7-3.7
		l-4.4-0.2c-11.2,0.2-22.2,4.5-30.7,13.1L45.1,94.3c-9,9-13.1,20.9-13.1,32.7c0,0,0,0,0,0.1l0.3,4.2l6.7,97.3c0,0.1,0,0.2,0,0.2v1.9
		l0,0c1,8.7,4.5,17.3,10.4,24.4l5.5,5.4l206.3,208.8l3.1,3.102c11.9,10.5,30,10,41.3-1.4L471,304.4C482.8,292.6,483,273.3,471,261.4
		z M144,192c-26.5,0-48-21.5-48-48s21.5-48,48-48s48,21.5,48,48S170.5,192,144,192z"/>
</g>
</svg>
